<svg fill="none" height="70" viewBox="0 0 60 70" width="60" xmlns="http://www.w3.org/2000/svg"><g clip-rule="evenodd" fill="#fff" fill-rule="evenodd"><path d="m29.8556 29.085-18.2986-18.4433 18.5393-10.64172289 18.2986 10.64172289zm13.8337-17.8376-13.8204 13.7489-13.6128-13.7205 13.8308-7.939z"/><path d="m29.8556 40.0642 18.7801 18.3464-18.5394 10.7387-18.5393-10.7387zm-13.6014 17.7283 13.6278-13.6635 14.0124 13.689-13.7981 7.9923z"/><path d="m35.3451 34.5746 19.9358-20.0321 4.7191 2.793v34.5265l-4.6228 2.6484zm20.5081 16.3333 1.2576-.7205v-31.2046l-1.3673-.8092-16.3124 16.3912z"/><path d="m24.366 34.5746-19.93581-19.7913-4.43017474 2.5522v34.5265l4.57463474 2.6484zm-21.47674-15.5692 1.07126-.6171 16.31948 16.2012-16.18599 16.3041-1.20475-.6974z"/></g></svg>