<svg width="202" height="49" viewBox="0 0 202 49" fill="none" xmlns="http://www.w3.org/2000/svg">
  <path d="M70.2776 25.9787c-.1989.1591-.4177.179-.4177.179s0-.2188.1393-.4376c.1392-.2188.3381-.4774.537-.736.0995-.1393.2189-.2586.3183-.378.0995-.1193.1989-.2188.2785-.3182.0995-.0796.1989-.1194.2785-.1393.0795-.0199.2188.0597.2188.0597s.0796.1392.0796.2188c-.0199.0796-.0398.1989-.1194.2984-.0796.0994-.179.1989-.2785.3182-.0994.1194-.2188.2189-.3381.3382-.2387.2188-.4973.4376-.6963.5968zm11.955 10.0453c.3382-.2586.5968-.3382.5968-.3382s-.0995.2586-.3979.5769c-.2984.3183-.7559.7758-1.3327 1.3526-.2984.2984-.6167.6167-.9747.9549-.3581.3381-.7559.7161-1.1736 1.094-.8355.7758-1.8301 1.6311-2.944 2.5064-.557.4376-1.1537.8752-1.8102 1.3128-.6564.4376-1.3526.8753-2.1682 1.2532-.4177.179-.8553.3581-1.3924.4774-.2785.0597-.5769.0995-.9349.0796-.0995 0-.1989-.0199-.2785-.0398-.0995-.0199-.1989-.0398-.2984-.0796-.0994-.0398-.2188-.0795-.3183-.1392-.0994-.0597-.2188-.1194-.3182-.1989-.0995-.0796-.1989-.1592-.2586-.2785-.0398-.0398-.0796-.0995-.1194-.1592-.0397-.0596-.0596-.0994-.0795-.1591-.1194-.2188-.1592-.4177-.1989-.6166-.0597-.378 0-.6962.0596-.9747.1194-.557.2586-.9946.4575-1.4521.1791-.4376.3581-.8554.557-1.2731.1989-.4177.4177-.8156.6365-1.2134.4377-.7957.9549-1.5715 1.4124-2.3671.3978-.6763.7956-1.3527 1.1935-2.0489-.3382.4177-.6962.8156-1.0941 1.2134-.5967.5968-1.2929 1.2134-2.2279 1.5516-.4774.1591-1.0144.2387-1.5316.1392-.0597-.0199-.1194-.0199-.1989-.0398-.0597-.0199-.1592-.0397-.199-.0596l-.179-.0796c-.0597-.0199-.1193-.0597-.179-.0796-.2188-.1193-.4575-.2983-.6365-.5172-.1791-.2188-.2984-.5171-.2984-.7956 0-.1791.0199-.3581.0795-.5172l-.1989.2785c-.3381.4774-.6564.9548-1.2134 1.3725-.2785.1989-.7956.4177-1.0741.4376-.179.0199-.5371-.0199-.6962-.0597-.1393-.0397-.3183-.1193-.4774-.2784-.1592-.1592-.2387-.3382-.2785-.4973-.0796-.3382-.0199-.557.0398-.736.0596-.1791.1392-.3382.2188-.4774.179-.2785.3779-.5172.5768-.736.3581-.3979.6366-.7957.9349-1.1935l-.2586.2586c-.4376.4376-.8752.8553-1.3526 1.2531-.2387.199-.4774.3979-.7161.5968-.2586.1989-.5172.3779-.7758.557-.5371.358-1.1537.6166-1.7902.8354-.8753.2586-2.8048.3581-2.8048.3581l-.0398-.4973c-.0199-.2188-.0397-.4376-.0397-.6366 0-.1989.0198-.3978.0198-.5967.0199-.1989.0398-.3978.0597-.5769.0199-.1989.0597-.3779.0796-.5768.0398-.1791.0796-.378.1193-.557.0398-.179.0796-.3581.1393-.5371.0597-.179.0994-.358.1591-.5371.0398-.0994.0796-.1989.0995-.2983-.0199.0199-.0199.0397-.0398.0596-.378.5769-.7957 1.1935-1.3328 1.7903-.5171.5968-1.1537 1.1736-1.8897 1.651-.736.4973-1.5515.9747-2.4666 1.2532-.1193.0398-.2387.0597-.358.0796-.1194.0199-.1989.0397-.3382.0596-.2586.0398-.5172.0597-.7956.0398-.2785-.0199-.5769-.0795-.8952-.2188-.2983-.1392-.5967-.4177-.7757-.7559-.1592-.3381-.199-.6763-.1791-.9747s.0796-.5768.1791-.8354c.179-.4973.4376-.9349.7161-1.3328.5768-.7758 1.273-1.4123 1.9692-1.9494.4178-.2983.8355-.5569 1.2532-.7956-.8553.2586-1.7107.537-2.5461.8354-1.114.4177-2.2478.8554-3.3418 1.293-.557.2188-1.114.4575-1.6511.6763.4973.7559.9747 1.5317 1.4521 2.3074.4178.7161.8355 1.4323 1.2134 2.1682.199.3581.378.736.557 1.114.179.3779.3581.7559.5371 1.1338.179.378.3381.7559.4973 1.1339.1591.3779.3183.7757.4575 1.1537l.4376 1.1736.3978 1.1935 1.2134 3.6999-2.1483-3.2623c-.5768-.8752-1.1736-1.7306-1.83-2.5461-.6365-.8156-1.3527-1.6113-2.0688-2.3672-.736-.7558-1.4918-1.4719-2.2676-2.1682-.7957-.6763-1.6112-1.3327-2.4666-1.9494-.3183-.2387-.6564-.4575-.9946-.6763-2.208.9349-4.4557 1.8102-6.7831 2.5263-2.3273.7161-4.7143 1.2929-7.161 1.6112-1.2134.1591-2.4467.2785-3.6999.3183-1.2333.0398-2.4865.0199-3.7198-.0597-1.2531-.0796-2.4864-.2387-3.7197-.4774-1.2333-.2387-2.4467-.5172-3.6601-.8553-1.2134-.3382-2.38702-.7559-3.56063-1.1935-1.17361-.4576-2.30745-.9549-3.44128-1.4919L0 33.8359l3.26225-1.4521c1.01448-.4376 2.00907-.8752 3.04344-1.2731.51719-.1989 1.03438-.3779 1.55156-.5569.51719-.1791 1.03437-.3581 1.57145-.4973 1.0543-.3183 2.1284-.5968 3.2026-.8355 1.0741-.2586 2.1682-.4376 3.2622-.5967 2.1881-.2984 4.3961-.3979 6.6041-.2785 2.208.1193 4.3762.4774 6.5046 1.0542 2.1085.5769 4.1574 1.3726 6.0869 2.3473.9747.4973 1.9096 1.0343 2.8246 1.6112.4973.3183.9946.6365 1.472.9747.8951-.358 1.7903-.7161 2.6854-1.0742.179-.0795.3382-.1392.5172-.2188-.2387-.3381-.4973-.6962-.7559-1.0343-.4973-.6565-.9946-1.293-1.5118-1.9295-.5172-.6366-1.0343-1.2532-1.5714-1.8699l-.8156-.915-.8354-.8951-.8554-.8753-.8553-.8752-.8753-.8553-.8951-.8355-.8951-.8156-.5172-.4575c-.4376.4575-.915.9151-1.4123 1.3328-1.1339.9349-2.387 1.7107-3.7795 2.2875-1.3725.5968-2.8445.935-4.3364 1.1339l-1.094.0795-.1592-.9946c-.0397-.2585-.0994-.5171-.1193-.7558l-.0398-.378-.0199-.3779c-.0199-.2387-.0199-.4973-.0199-.736 0-.2387.0199-.4774.0199-.7161 0-.2387.0398-.4774.0597-.7161.0199-.2387.0597-.4774.0796-.6962.0199-.2387.0596-.4576.0994-.6963.0398-.2387.0796-.4575.1194-.6962.0398-.2387.0994-.4575.1392-.6962.0398-.2387.0995-.4575.179-.6763.0597-.2188.1194-.4575.199-.6763.0795-.2188.1392-.4575.2188-.6763.0795-.2189.1591-.4377.2387-.6565.0994-.2188.179-.4376.2785-.6564.0994-.2188.1591-.4376.2585-.6564l.2984-.6366.5968-1.0542.9747.6962 1.0145.736.9945.736.9946.7559.9747.7757.9548.7957.9548.7957.9349.8155.8156.7162c.2387-.2387.4575-.4774.6763-.7162.4575-.5171.8952-1.0542 1.293-1.6311.1989-.2785.3978-.5768.5769-.8752.179-.2984.5967-.8753.5967-.8753s-.179.6963-.3183 1.0145c-.1591.3183-.3182.6366-.4973.9349-.358.6167-.7359 1.2134-1.1537 1.7903-.1989.2785-.3978.5371-.6166.7957l.5172.4774.8951.8553.8951.8753.8753.8752.8553.8951.8554.915.8354.935.8156.9349c.5371.6365 1.0542 1.273 1.5714 1.9295.5172.6564 1.0145 1.3128 1.4919 1.9892.2984.4177.5968.8354.8951 1.273.5968-.2387 1.1935-.4973 1.7903-.7559 1.1139-.4575 2.2279-.915 3.3617-1.3526s2.2677-.8355 3.4413-1.1935c1.1537-.3581 2.3472-.6365 3.5805-.8156.2984-.0596.6167-.0795.915-.1193.2984-.0199.6167-.0597.915-.0597.6167-.0398 1.2333-.0199 1.85.0199l1.2134.0796-.9747.736c-.1393.0994-.2586.1989-.378.3182-.1193.0995-.2387.2188-.358.3382-.1194.1193-.2387.2387-.3382.358-.1193.1194-.2188.2586-.3182.378-.0995.1392-.199.2785-.2984.4177-.0995.1393-.179.2785-.2586.4376-.1591.2984-.2984.5968-.4177.9151-.0597.1591-.1194.3182-.1592.4774-.0398.1591-.0795.3381-.1193.4972-.0796.3382-.1194.6764-.1393 1.0145-.0199.3382-.0199.6763 0 1.0145.0199.2387.0597.4575.1194.6564.4774-.0397.9548-.1392 1.4123-.2586.557-.1392 1.0941-.358 1.5913-.6365.2586-.1392.4973-.2984.7559-.4575.2387-.1591.4774-.3382.7161-.5172.4774-.358.935-.736 1.3925-1.1139.915-.7758 1.7902-1.5914 2.6854-2.4069.8752-.8156 2.6853-2.4268 2.6853-2.4268s-.6365.9349-.9746 1.3725l-1.0344 1.3129-1.0145 1.3128c-.3382.4376-.6564.8951-.9747 1.3527-.1591.2188-.2984.4575-.4575.6962-.1393.2387-.2984.4575-.4376.6962-.1393.2188-.2785.4575-.3979.6962-.0596.1193-.0994.2387-.1392.358-.0398.1194-.0398.2189-.0398.2984.0199.0796.0398.0995.1194.1393.0795.0398.1989.0398.3182.0199.2387-.0199.4774-.0995.6962-.2387.4377-.2586.8355-.6565 1.2134-1.0742.378-.4177.7559-.8156 1.114-1.2333.3779-.4177.7758-.8156 1.1736-1.2134.8155-.7758 1.7107-1.472 2.6655-2.0687.4774-.2984.9747-.5769 1.4919-.8156.4973-.2586 1.0343-.4774 1.5515-.6763.9747-.378 1.9892-.6962 3.0037-.9548.2586-.378.5172-.7758.7758-1.1537 1.0343-1.5317 2.0886-3.0037 3.1429-4.416 1.0542-1.4123 2.1085-2.765 3.123-3.9983.5172-.6365 1.0343-1.2333 1.5316-1.7902.4973-.5769.9946-1.114 1.4919-1.6311.9747-1.0344 1.8897-1.9693 2.7451-2.765.2188-.1989.4177-.3978.6763-.5172.2586-.1193.5371-.1989.7758-.3183.4774-.1989.9349-.3779 1.3327-.537.7957-.3382 2.5661-.8554 2.5661-.8554s-1.2333 1.293-1.7903 1.8698c-.1392.1393-.2984.2984-.4575.4576-.1591.1591-.3382.2983-.5172.4575-.179.1591-.358.3381-.5569.5171-.199.1791-.3979.3382-.6167.5172-.8553.7161-1.8101 1.5715-2.8047 2.5263-2.0091 1.9096-4.237 4.2568-6.5046 6.9024-1.1339 1.3129-2.2677 2.7053-3.4015 4.1574-1.1339 1.4322-2.208 2.944-3.2623 4.4757-1.0543 1.5316-2.0687 3.0832-2.9241 4.6944-.2188.3979-.4177.8156-.5967 1.2134-.1791.4178-.3581.8156-.5371 1.2333-.3183.8156-.6366 1.651-.7559 2.4865-.0597.3978-.0995.8156-.0597 1.1537.0199.179.0597.3183.1194.4177.0596.0995.0994.1194.1193.1393s.0796.0398.1989.0597c.1194.0198.2785 0 .4377-.0199.3182-.0398.6763-.1592 1.0343-.2785.6962-.2586 1.3726-.5968 2.0091-.9548.6365-.3581 1.2532-.736 1.83-1.0941 1.1737-.736 2.2279-1.4521 3.143-2.1085.915-.6564 1.7106-1.2333 2.3671-1.7107.5172-.5769 1.0343-.9548 1.3725-1.2134zM31.5484 21.145l-.6963-.5968-.9349-.7758-.9548-.7758-.9548-.7558-.9747-.736-.9747-.736-.9946-.7161-.5171-.3581-.0199.0398c-.0796.1989-.1592.3978-.2387.5967-.0796.199-.1393.3979-.2189.5968-.0795.1989-.1392.3978-.1989.6166-.0795.199-.1193.4178-.179.6167-.0597.1989-.1193.4177-.1591.6166-.0597.2188-.0995.4178-.1393.6366-.0398.2188-.0994.4177-.1193.6365-.0398.2188-.0796.4177-.0995.6365-.0199.2189-.0597.4178-.0795.6366-.0199.2188-.0398.4376-.0597.6365 0 .2188-.0398.4376-.0398.6366 0 .2188-.0199.4376 0 .6365 0 .2188 0 .4177.0199.6365l.0199.3183.0398.3183c0 .0398.0199.0795.0199.1193 1.1736-.0597 2.3273-.2984 3.4412-.6564 1.293-.4177 2.5263-1.0145 3.6601-1.7903.4376-.2983.915-.6564 1.3527-1.0343zm6.5444 13.6457c-1.1538-.7161-2.3473-1.3725-3.5806-1.9096-1.9096-.8553-3.8789-1.5317-5.9078-1.9693-2.029-.4575-4.0977-.6763-6.1864-.6962-2.0687 0-4.1573.1989-6.1863.5968-1.0145.1989-2.029.4177-3.0236.7161-.9945.2784-1.9891.5967-2.9638.9747-.49733.179-.97473.3779-1.45214.5768-.4774.1989-.9548.3979-1.4322.6167-.33816.1392-.65643.2983-.9747.4575.43762.2387.87524.4575 1.31286.6763 1.05426.4973 2.12842.9747 3.24238 1.3725 1.094.3979 2.2279.7559 3.3617 1.0344 1.1338.2785 2.2875.4973 3.4612.6564 1.1736.1592 2.3472.2387 3.5208.2785 1.1736.0199 2.3671 0 3.5407-.0994 2.3672-.199 4.7144-.6565 7.0218-1.2532 2.1285-.5968 4.1972-1.2731 6.2461-2.029zm4.8734-1.1537c-.2188.0995-.4376.179-.6564.2785-.736.3182-1.4919.6365-2.2279.9548.1592.1193.2984.2188.4376.3381 1.7107 1.3129 3.3021 2.765 4.7741 4.3365.736.7956 1.4322 1.5913 2.1085 2.4267.1591.199.3183.4178.4774.6167l-.0199-.0199c-.1591-.3779-.3183-.7559-.4774-1.1139-.179-.378-.3381-.736-.5172-1.114-.179-.358-.358-.736-.5371-1.094-.1989-.3581-.3779-.7161-.5768-1.0742-.3979-.7161-.7957-1.4123-1.2333-2.1085-.4774-.8355-.9946-1.6311-1.5516-2.4268zm15.0979-4.1972c.0398-.0398.0597-.0795.0995-.1193.0397-.0398.0596-.0796.0994-.0995-.7957 0-1.5913.0597-2.387.179-.0398 0-.0597.0199-.0995.0199-.3182.0796-.6564.1592-.9945.2785-1.2731.4177-2.6854 1.0941-3.9585 2.1483-.6365.5172-1.2532 1.114-1.7306 1.8301-.2387.358-.4376.7161-.5769 1.094-.0596.1989-.0994.378-.1193.557 0 .179.0199.3382.0796.4774.1193.2586.4376.3779.8354.3978.1989.0199.3978 0 .5968-.0199l.3182-.0397c.0995-.0199.199-.0398.3183-.0597.8355-.179 1.6311-.4575 2.3472-.8554.7161-.3978 1.3328-.8951 1.8699-1.4322.537-.5371.9945-1.1139 1.3924-1.651.7957-1.094 1.3526-2.0886 1.9096-2.7053zm14.1629 3.9784c.4973-.557.9349-1.114 1.3328-1.6311.2984-.378.557-.736.8156-1.0543.3381-.5371.6763-1.0742 1.0144-1.5913-.1591.0198-.3182.0596-.5172.0994-.537.0995-1.0741.2188-1.5913.3978-.4774.1393-.9548.3183-1.4123.4973-.4575.2387-.915.4973-1.3924.7957-.6366.3978-1.2731.8554-1.9096 1.3527-.6167.5171-1.2532 1.094-1.7505 1.7504-.1194.1592-.2387.3382-.3382.5172-.0994.179-.179.3581-.2188.557-.0398.179-.0398.3779 0 .5172.0398.1591.1393.2586.2586.3381.1194.0796.2785.1592.4376.1989l.1194.0398.1392.0398h.1194c.0397 0 .0795.0199.1193.0199.0796 0 .1591.0199.2586.0199h.2586c.179-.0199.358-.0398.5172-.0995.7161-.1989 1.472-.5768 2.0886-1.094.6366-.5371 1.1736-1.1139 1.651-1.6709zm129.555.4774l-3.441 1.7704c-2.427 1.2531-4.933 2.3273-7.579 3.0633-1.313.3779-2.665.6564-4.018.8354-1.353.1791-2.725.2586-4.098.2387-2.725-.0596-5.41-.5967-7.956-1.4322-2.547-.8354-4.914-2.009-7.181-3.2821-.418-.2387-.836-.4774-1.254-.736-.557.2586-1.094.5172-1.651.7758-1.034.4774-2.088.9548-3.182 1.3526-1.094.3979-2.228.736-3.402.7758h-.437c-.14 0-.299-.0199-.438-.0398s-.298-.0398-.438-.0796l-.417-.0994c-.577-.1393-1.134-.3382-1.651-.6763-.259-.1592-.498-.3581-.716-.5769-.219-.2188-.398-.4575-.577-.6763-.06-.0796-.12-.1592-.179-.2188-1.512 1.0741-3.084 2.0687-4.695 2.9837-2.009 1.1538-4.058 2.208-6.146 3.1429-4.198 1.9097-8.574 3.4214-13.029 4.5354-2.228.5569-4.496 1.0343-6.784 1.3924-2.287.358-4.575.6166-6.902.736-1.154.0597-2.307.0994-3.481.0796-1.154 0-2.327-.0398-3.481-.1194-2.327-.1591-4.655-.4575-6.942-.9946-1.154-.2586-2.2879-.5768-3.4018-.9548-1.114-.3779-2.2279-.8156-3.3021-1.3128-2.1483-1.0145-4.217-2.3274-6.0073-3.9784-.8951-.8156-1.7306-1.7107-2.4865-2.6854-.7559-.9747-1.4123-2.0091-1.9891-3.0832-1.1538-2.1682-1.9097-4.5353-2.3274-6.9224l-.1591-.9747.8553-.6166c2.2478-1.3327 4.4956-2.6456 6.7831-3.8988 2.2876-1.2532 4.6149-2.4268 6.982-3.5208 1.1935-.5371 2.3871-1.0742 3.5809-1.5516.039-.0199.099-.0398.139-.0597-.179-.1989-.338-.3978-.4974-.6166-.3381-.4774-.6564-1.0344-.7957-1.6709-.1392-.6366-.0994-1.3129.0796-1.9096.179-.5968.4774-1.1339.7957-1.6312.3178-.4972.6758-.9349 1.0738-1.3526.756-.83545 1.592-1.59134 2.427-2.32733l.438-.37795.557.31827c.398.2387.736.61665.955 1.01448.198.41773.278.83546.318 1.23329.04.77574-.1 1.47204-.299 2.10854-.199.6564-.437 1.2532-.716 1.8499-.278.5968-.577 1.1537-.895 1.7107-.099.1592-.179.3183-.278.4774.139-.0398.258-.0994.398-.1392 2.466-.8554 4.972-1.5715 7.539-2.0887 2.466-.5171 4.972-.8155 7.479-.9548.199-.3978.418-.7757.636-1.1537.876-1.5118 1.85-2.96386 3.004-4.29661.577-.65643 1.174-1.31286 1.81-1.9295.637-.59676 1.313-1.17362 2.029-1.7107.716-.53707 1.452-1.03437 2.228-1.49188.776-.45751 1.571-.85534 2.407-1.213397L133.156 0l-.876 2.32734c-1.71 3.81922-3.958 7.35995-6.524 10.62216.398.0398.795.0995 1.193.1592 1.791.2586 3.541.6166 5.292 1.0741.358-.6365.716-1.2929 1.094-1.9295 1.71-3.0633 5.152-9.20986 5.152-9.20986s-1.671 3.54074-2.566 5.27132l-1.512 3.00364c-.517 1.0145-1.015 2.029-1.532 3.0435.557.1591 1.114.3182 1.671.4973 1.293.4177 2.586.8951 3.839 1.4322.358-.6764.696-1.3328 1.054-2.0091l2.129-4.0778c.696-1.37255 2.248-4.03805 2.248-4.03805l-1.254 2.78485c-.457.91502-.915 1.83-1.352 2.765-.756 1.5913-1.532 3.1826-2.288 4.7939.955.4177 1.91.8354 2.845 1.2929 2.327 1.1339 4.595 2.4069 6.803 3.7397 2.208 1.3526 4.376 2.765 6.524 4.1773 1.333.8951 2.666 1.7902 4.018 2.6655 1.433-1.4919 2.765-3.0833 3.879-4.8138 1.214-1.8898 2.188-3.9386 2.765-6.0869.537-2.029.617-4.1375.458-6.1665-.08-.1193-.179-.2387-.279-.358-.159-.1791-.358-.3581-.557-.5172-.219-.1592-.437-.2984-.676-.4376-.239-.11939-.497-.23874-.756-.31831-.259-.09945-.537-.15913-.816-.21881-.139-.01989-.278-.03978-.437-.07956l-.438-.03979-.437-.01989h-.458l-.457.01989c-.16 0-.299.0199-.458.03979-.159 0-.298.03978-.457.05967-.16.0199-.299.03979-.458.07957-.298.03978-.617.11935-.915.17903-.298.07956-.597.15913-.915.2387-.298.09941-.597.17901-.895.27851-.299.0994-.597.2188-.895.3182-.299.1194-.597.2387-.875.3581-.299.1193-1.771.736-1.771.736s1.273-1.0145 1.552-1.1935c.278-.179.557-.3581.835-.5172.279-.15914.557-.33816.855-.47741.279-.15913.577-.29837.876-.45751.298-.13924.596-.27848.915-.39783.318-.11935.616-.2586.935-.35805.159-.05968.318-.09946.477-.15914.159-.03978.318-.09946.497-.13924.16-.03978.339-.07957.498-.11935l.517-.09946.517-.07957.537-.05967.537-.01989h.537c.358.01989.736.05967 1.114.11935.378.05967.736.15913 1.114.27848.378.11935.736.27849 1.094.4774.358.19892.696.41773 1.035.69622.318.27848.636.57686.915.95477l.139.2586.02.5371c-.199 2.4666-.816 4.8337-1.671 7.0616-.856 2.208-1.95 4.2966-3.243 6.2261-1.153 1.7107-2.446 3.3219-3.859 4.8138.518.3382 1.015.6564 1.532.9946 1.731 1.0941 3.481 2.1483 5.271 3.123.16-.0796.339-.179.498-.2586 1.014-.5371 2.068-1.0542 3.123-1.5316 1.054-.4774 2.148-.9151 3.242-1.3129 1.114-.3978 2.248-.7559 3.402-1.0344 1.153-.2785 2.327-.4973 3.52-.6166 1.194-.1393 2.407-.1989 3.601-.179 1.213.0198 2.427.1193 3.62.2784 1.194.1592 2.387.4178 3.581.7161 1.173.2984 2.426.7758 3.481 1.1538 1.054.3779 6.902 3.5805 6.902 3.5805zm-71.471-14.3221c-.676 1.3725-1.373 2.765-2.009 4.1574-.318.6962-.637 1.3924-.935 2.1085-.298.7161-.597 1.4123-.875 2.1284-.577 1.4124-1.114 2.8446-1.572 4.2569-.218.6962-.417 1.4123-.477 2.0289-.02.1592-.02.2984-.02.4178 0 .1193.02.2188.04.2983.02.0597.04.0796.06.0995.019.0199.059.0398.119.0796h.04l.119.0397h.06c.02 0 .039.0001.059.0199.08.0199.179.0199.279 0 .199-.0397.457-.1193.716-.2784.517-.2984 1.054-.7758 1.551-1.2731.498-.5172.995-1.0742 1.453-1.651.477-.5769.935-1.1935 1.372-1.8102.895-1.2333 1.731-2.5063 2.546-3.7993.816-1.293 1.572-2.6257 2.308-3.9784.736-1.3526 1.472-2.7052 2.188-4.0579.258-.4973.517-.9747.776-1.472-1.234-.4973-2.487-.9548-3.74-1.3526-.597-.179-1.194-.3581-1.79-.5172-.06.1392-.14.2785-.199.4177-.716 1.3725-1.393 2.765-2.069 4.1375zm-5.212-5.7885c-.02.0199-.039.0597-.059.0796-2.785 3.4214-5.908 6.5046-9.23 9.369-.04.1989-.1.4177-.139.6166-.159.8355-.279 1.6908-.398 2.5263-.12.8355-.179 1.6908-.239 2.5461-.02.4178-.04.8554-.06 1.2731-.019.4177-.019.8554-.019 1.2731 0 .8553.019 1.7107.059 2.5461.04.5968.139 1.1935.199 1.7903.537-.0796 1.054-.2586 1.552-.4973.716-.358 1.392-.8355 2.029-1.3924.636-.557 1.233-1.1537 1.81-1.8102.577-.6365 1.114-1.3128 1.651-2.009 1.054-1.3726 2.049-2.8247 3.004-4.2768.954-1.472 1.889-2.9638 2.784-4.4557 1.293-2.1483 2.547-4.3364 3.8-6.5245-1.651-.3979-3.322-.7161-5.013-.9151-.557-.0596-1.134-.0994-1.731-.1392zm-5.291-1.094c1.353-.0398 2.686 0 4.038.0795 2.149-2.82461 4.038-5.84816 5.55-9.03085-.756.33816-1.472.71611-2.188 1.15373-.696.43762-1.373.91502-2.029 1.4521-.637.51718-1.273 1.09404-1.85 1.6908-.577.59675-1.134 1.23329-1.651 1.90961-.517.65641-1.014 1.35261-1.452 2.06871-.139.2188-.279.4575-.418.6764zm-1.929 3.8192c-.637 1.5117-1.174 3.0832-1.592 4.6745 2.447-2.3472 4.754-4.8536 6.843-7.4992-1.313-.0397-2.606 0-3.919.0796h-.019c-.08.1393-.16.2984-.239.4376-.398.7559-.756 1.5317-1.074 2.3075zm-15.218 1.3526c.08.0597.16.1393.239.1989.816.6962 1.671 1.3726 2.487 2.0887.835.7161 1.631 1.472 2.367 2.3273.736.8355 1.372 1.7704 1.949 2.765.219.3978.418.7956.617 1.1935 1.531-1.2333 3.023-2.5064 4.475-3.8391.259-.2387.518-.4774.776-.7161.06-.2189.1-.4576.159-.6764.438-1.6709.935-3.3219 1.552-4.9331.318-.8156.656-1.5914 1.034-2.387 0-.0199.02-.0199.02-.0398-2.248.1989-4.475.5569-6.664 1.0741-2.486.5769-4.913 1.3527-7.3 2.2677-.577.2188-1.154.4376-1.711.6763zm6.644 10.8609c-.02-.1193-.02-.2586-.039-.3779-1.492 1.0741-3.024 2.0886-4.576 3.0832-1.69 1.0742-3.421 2.0886-5.1913 3.0236.0795.0994.1591.1989.2387.2983.6766.7957 1.5116 1.4521 2.4066 1.8898.895.4575 1.89.6962 2.785.6962.438 0 .855-.0796 1.233-.199.358-.1193.677-.2983.975-.537.577-.4575 1.034-1.1736 1.353-2.029.338-.8553.557-1.83.696-2.8246.04-.2387.06-.5172.099-.7559l.04-.3978c.02-.1194.02-.2388.02-.378.02-.4774.02-.9747-.04-1.4919zm-8.573-12.87c.199.2785.418.557.676.8156.04-.0199.08-.0398.12-.0398.358-.5967.696-1.2134 1.014-1.83.279-.5371.537-1.0941.756-1.651.219-.557.418-1.114.557-1.6709.139-.557.199-1.114.159-1.5715-.02-.19891-.079-.37794-.139-.51718-.657.45751-1.273.95478-1.85 1.49188-.378.3581-.716.736-1.015 1.1338-.298.3979-.537.8156-.696 1.2532-.159.4376-.199.8753-.119 1.3129.04.4376.258.8752.537 1.273zm51.719 18.1612c-.06-.0795-.14-.179-.199-.2586-.716-.8553-1.572-1.5913-2.487-2.2079-.795-.5172-1.531-.9747-2.407-1.3328-.318.0398-.636.0796-.855.1393-.497.1392-.975.2983-1.452.4972-.935.3979-1.81.935-2.626 1.5317-.815.5968-1.591 1.2731-2.347 1.9892-.756.6962-1.532 1.4322-2.487 2.0091-.238.1392-.497.2784-.755.3978-.259.1193-.538.2188-.836.2984-.577.1591-1.193.1989-1.79.1591-.139-.0199-.299-.0398-.438-.0597H133.633l-.1-.0199-.159-.0397-.139-.0398c-.358-.1194-.716-.3183-.994-.6167-.279-.2785-.478-.6166-.597-.9548-.12-.3381-.179-.6564-.219-.9548-.06-.6166-.02-1.1935.06-1.7306.079-.5569.199-1.0741.358-1.5913.278-.9747.636-1.9295 1.014-2.8445-.437.8752-.895 1.7504-1.372 2.6257-.756 1.3725-1.572 2.7053-2.626 3.9783-.259.3183-.557.6167-.855.9151-.319.2983-.657.5768-1.055.8155-.398.2387-.855.4774-1.412.557-.278.0398-.577.0597-.875.0199-.08 0-.139-.0199-.219-.0398-.04 0-.08-.0199-.119-.0199l-.06-.0199h-.02c.02 0-.06-.0199-.06-.0199l-.139-.0398-.04-.0199-.059-.0198-.12-.0597c-.298-.1393-.577-.3183-.815-.5769-.239-.2586-.398-.5967-.498-.8951-.179-.6167-.119-1.114-.059-1.5715.079-.4575.179-.8752.318-1.2531.119-.3979.279-.7758.438-1.1339.318-.736.656-1.4521 1.014-2.1284.119-.2387.259-.4774.398-.736-.458.6962-.935 1.3924-1.432 2.0688-.517.7161-1.074 1.4322-1.651 2.1085-.577.6763-1.194 1.3526-1.87 1.9693-.676.6166-1.412 1.1935-2.268 1.651-.417.2188-.875.4177-1.352.557-.478.1392-.975.2188-1.472.2387l-.697.0397-.019-.7161c0-.8752.039-1.7305.099-2.6058.04-.8752.099-1.7306.159-2.5859.04-.4376.06-.8554.119-1.293.04-.4376.08-.8553.12-1.2929.099-.8554.219-1.7107.338-2.5661.119-.8354.278-1.6709.438-2.4865-1.453 1.2333-2.944 2.4069-4.476 3.5408.139.358.259.736.358 1.094.159.557.298 1.1339.378 1.7306.02.1392.04.2984.06.4376l.039.4178.04.4376c.02.1392.02.2984.02.4376.04 1.1736-.04 2.3671-.418 3.6004-.039.1591-.099.2984-.159.4575-.059.1591-.119.2984-.199.4575-.059.1592-.139.2984-.219.4575-.079.1592-.159.2984-.258.4377-.179.2983-.418.5768-.657.8553-.258.2586-.537.5172-.835.736-.318.2188-.656.3978-.995.5371-.358.1392-.716.2387-1.094.2984-.736.1193-1.452.0397-2.108-.1194-1.313-.3382-2.347-1.0344-3.243-1.8102-.875-.7757-1.6306-1.651-2.2672-2.5859-.0994-.1392-.179-.2785-.2785-.4376-.9945.5172-1.9891.9946-3.0036 1.4521-.5172.2188-1.0344.4376-1.5516.6365-.5371.199-1.0542.378-1.6311.4774l-.0597.0199-.0398-.0398c-.3779-.358-.6962-.7757-.915-1.2531-.2387-.4774-.358-1.0145-.3779-1.5516-.0199-.5371.0597-1.094.2188-1.6112.1591-.5172.4177-.9946.7161-1.4521.2984-.4575.6564-.8554 1.0543-1.2134.3978-.3581.8354-.6962 1.2929-.9747.4575-.2785.9548-.4973 1.472-.6763.5172-.1791 1.0543-.2984 1.5914-.3581l.9349-.0995-.1592.9549c-.1591.9349-.179 1.9096.0199 2.9042.0995.4972.2586.9945.4774 1.452.0995.2189.2188.4178.3581.6167 1.7308-1.0145 3.4218-2.0886 5.0918-3.2026 1.632-1.1139 3.223-2.2676 4.775-3.481-.12-.5371-.299-1.0742-.538-1.5914-.417-.9349-.994-1.8101-1.651-2.6058-.676-.7957-1.412-1.5516-2.208-2.2478-.795-.6962-1.631-1.3725-2.466-2.0687-.159-.1393-.299-.2586-.458-.3979-.039.0597-.079.0995-.119.1592-.736 1.0145-1.512 2.009-2.3274 2.9837-1.6112 1.9295-3.3617 3.7397-5.2116 5.4305-1.8499 1.6908-5.9874 4.5154-5.9874 4.5154s3.8391-3.1826 5.5697-4.9331c1.7306-1.7704 3.3617-3.6402 4.8536-5.6095.4774-.6365.9548-1.293 1.4123-1.9693-.8753.3978-1.7306.8156-2.586 1.2532-1.1338.5768-2.2676 1.1736-3.3617 1.8101-1.1139.6366-2.208 1.293-3.2821 1.9693-1.0941.6763-2.1483 1.3726-3.2026 2.0887-.5371.358-1.0542.736-1.5714 1.094-.3382.2387-.6565.4774-.9946.7161.3182 1.9295.8553 3.8192 1.7107 5.5896.4774.9747 1.0343 1.9096 1.6709 2.7849.6365.8752 1.3526 1.6908 2.1483 2.4665 1.5714 1.5317 3.4015 2.765 5.3708 3.7795 1.9693 1.0144 4.0778 1.7504 6.2455 2.3074 2.169.557 4.397.8951 6.644 1.114 2.248.1989 4.496.2387 6.764.1591 4.515-.179 9.011-.8355 13.426-1.8897 4.416-1.0543 8.733-2.5064 12.87-4.3364 3.72-1.6908 7.301-3.6601 10.643-5.9875zm-55.2797-4.2767c0-.0995.0199-.1989.0199-.2984-.2785.0398-.5768.0995-.8553.1989-.4575.1393-.8952.3183-1.3129.5371-.4177.2188-.8155.4774-1.1736.7957-.3581.2984-.6962.6365-.9946 1.0145-.5769.736-.9946 1.651-1.0344 2.5859-.0199.4774.0398.9548.199 1.3924.1591.4377.3779.8355.6564 1.2134.5172-.1193 1.0145-.3182 1.5118-.5172.5171-.2188 1.0144-.4376 1.5117-.6962.9946-.4774 1.9494-.9946 2.9042-1.5316-.4177-.6962-.7757-1.4124-1.0343-2.1682-.1791-.5371-.3183-1.0941-.378-1.6511-.0199-.1392-.0199-.2784-.0199-.4376v-.4376zm56.3937 3.4612c1.69-1.2532 3.302-2.6058 4.793-4.0579-1.253-.8952-2.506-1.7704-3.779-2.6655-1.054-.736-2.109-1.472-3.183-2.1881-1.054-.7161-2.148-1.4124-3.222-2.1086-1.094-.6763-2.188-1.3526-3.302-1.9891-1.114-.6366-2.248-1.2333-3.402-1.7903-.935-.4575-1.889-.8951-2.844-1.293-.02.0398-.04.0995-.06.1393-.855 1.8698-1.691 3.7396-2.486 5.6095-.398.9349-.776 1.8897-1.114 2.8445-.179.4774-.338.9548-.498 1.4521-.159.4774-.298.9747-.437 1.4521-.279.9747-.517 1.9494-.696 2.9241-.08.4774-.16.9747-.199 1.4322-.02.4774-.04.9349.02 1.3327.059.3979.198.7161.358.8554.079.0795.179.1392.318.179l.06.0199c.019 0 .019 0 .039.0199.02 0 .06.0199.08.0199h.06c.099.0199.218.0398.318.0398.855.0994 1.671-.0398 2.566-.378.875-.3382 1.75-.8553 2.606-1.3924.855-.557 1.69-1.1537 2.526-1.7505l2.506-1.8101c.836-.6167 2.905-2.029 2.905-2.029s2.148 1.7704 2.963 2.6058c.816.8355 1.592 1.7107 2.248 2.6854.06.0995.12.179.199.2785.239-.1194.458-.2785.657-.4376zm11.835.6564c-1.532-.9349-3.004-1.9096-4.476-2.9241-.557-.3779-1.113-.7758-1.67-1.1537-1.572 1.5714-3.263 3.0036-5.033 4.3165-.219.179-.458.3382-.696.4973.059.0796.099.1591.159.2387.159.2387.318.4575.517.6564.179.1989.398.378.617.5172.218.1591.477.2586.736.3581.258.0994.517.179.795.2387l.418.0795c.139.0199.259.0597.398.0796.139 0 .278.0398.398.0398h.199l.199-.0398c1.094-.0796 2.168-.4376 3.202-.8553 1.035-.4178 2.049-.935 3.064-1.4521.397-.199.775-.3979 1.173-.5968zm29.241-.1591c-.338-.199-.696-.378-1.034-.557-.995-.4973-2.009-.9548-3.044-1.3526-1.034-.378-2.108-.7161-3.182-.9747-1.075-.2586-2.189-.4377-3.302-.557-1.114-.1194-2.228-.1591-3.362-.1194-1.114.0398-2.248.1791-3.342.3581-1.114.179-2.208.4376-3.302.7559-1.094.3183-2.148.6962-3.223 1.1139-1.014.3979-2.028.8355-3.023 1.293.119.0597.239.1193.358.179 2.268 1.1537 4.615 2.1284 7.042 2.8048 1.213.3381 2.446.5768 3.68.7359 1.233.1393 2.486.199 3.719.1393 2.487-.0995 4.914-.6365 7.241-1.4919 1.154-.4376 2.288-.9349 3.401-1.5118.438-.2785.916-.537 1.373-.8155z" fill="url(#signature_fill)"/>
  <defs>
    <linearGradient id="signature_fill" x1="1e-7" y1="33" x2="202" y2="35.5" gradientUnits="userSpaceOnUse">
      <stop stop-color="#FF0"/>
      <stop offset=".508287" stop-color="#F0F"/>
      <stop offset="1" stop-color="#0FF"/>
    </linearGradient>
  </defs>
</svg>
